#!OML:ASF F:\VICON\USERDATA\INSTALL\rory3\rory3.ASF
:FULLY-SPECIFIED
:DEGREES
21
root 0.47465933174827996 17.946140342067437 2.766379251704249 3.6063246381218406 4.153011887640901 0.016881579704596916
lfemur -4.714372528472497 7.923773185355296 -25.99791966382245
ltibia 64.99674397010577
lfoot 20.53065595769553 -17.775418364596383
ltoes -7.879832302624436
rfemur -25.933710480273056 12.636907337681924 24.57701110856609
rtibia 30.25706629922122
rfoot 4.957861746729661 -6.9011394528292165
rtoes 1.4050069674115773
lowerback -8.881784189112644e-10 1.6915511841573085 -0.42297033035633613
upperback 0.09672879158214376 -0.4008040120629981 1.3479880115954228
thorax -8.090854012245439 -0.28212242463100345 2.032827124051795
lowerneck -19.693950383697366 -3.9836113996115117 -3.1003951223808723
upperneck 10.761462458998517 -4.402115106542594 6.7165761794087
head 7.144106733779073 -1.6497325937576506 1.5614657548467301
lclavicle 4.8312975510895253e-08 6.327517335068217e-08
lhumerus -39.16789525622795 -13.220026812584827 94.85909306880647
lradius 124.30915623897128
lwrist 33.248873553869714
lhand -20.691215747290098 2.78152961118699
lfingers nan
lthumb 5.922079733963863 33.15174601232916
rclavicle -5.1355152626490126e-08 1.5100372902240748e-07
rhumerus -65.5648394782376 3.969832096991495 -93.86980890740143
rradius 100.42330835758247
rwrist -14.582325487033634
rhand -16.80271197133587 -8.881784189112644e-10
rfingers nan
rthumb 9.762749939238956 9.106034727348975
22
root 0.4860959729340004 17.898373089973287 -2.0734910287907384 3.3616409459449987 3.81263196766324 -0.6737139971837787
lfemur -6.303218434231434 7.291404827715383 -21.390420786389694
ltibia 83.48482321410785
lfoot 29.18097379498466 -21.060878710211497
ltoes -8.32496077767811
rfemur -16.967047831175307 11.783688139316972 27.776602298720913
rtibia 27.779638366805287
rfoot 9.507819086511361 -2.5579913480809915
rtoes 0.042946780222564596
lowerback -8.881784189112644e-10 1.4643353149340912 2.3581909508196834
upperback 0.039171001590694754 0.4224133623580373 2.0134074169137333
thorax -7.557474188902502 0.11247388169515826 0.8520586094164949
lowerneck -19.36746305295572 -3.427267075834796 -2.97388994503364
upperneck 11.97193073000806 -4.5828600155443056 6.032212697913673
head 7.24123678531409 -1.8334087416741167 1.3053626268750655
lclavicle -1.1631937804291044e-07 1.8414662110809608e-07
lhumerus -40.50914455036685 -12.028962223184593 94.74798958955733
lradius 124.9142565587487
lwrist 32.71608834809611
lhand -20.679298765850568 2.490227505119282
lfingers nan
lthumb 5.867068049402285 32.84073181061335
rclavicle -1.0459551314201186e-07 3.3484651153429076e-07
rhumerus -66.05044479456117 4.587217075223557 -94.05500258889688
rradius 102.47402893498851
rwrist -14.327414635378119
rhand -16.494737434962452 -8.881784189112644e-10
rfingers nan
rthumb 9.96563912281537 8.36632130162911
23
root 0.5064134979503689 17.794557595882036 -1.9811501387773758 3.4679523576178557 2.648264000064163 0.042822433946986926
lfemur -14.513797206534061 7.1597259065273455 -14.329324049782684
ltibia 100.05624932736654
lfoot 28.802605202069316 -20.543666286519677
ltoes -10.587960192787056
rfemur -8.80882503605805 8.139587012911917 32.77142237086284
rtibia 23.604709825803937
rfoot 8.679272021331991 0.3371352857922947
rtoes -8.171635415252437
lowerback -8.881784189112644e-10 1.571766236888223 6.632651536327743
upperback -0.32519973076226927 1.3597370859815967 2.5874596523374622
thorax -7.786429698015805 0.8020883198298996 0.0025834607543568366
lowerneck -20.250869750320344 -3.15075404942612 -2.8994912474339074
upperneck 12.764426193148047 -4.345213766233335 4.813583243710774
head 7.231360838283215 -1.7797480921111135 1.2609566009978384
lclavicle 1.7218982336106654e-07 -1.1149123121516042e-07
lhumerus -43.20377644117711 -10.202787897810596 95.00080716629154
lradius 124.04952391365853
lwrist 33.025906162950406
lhand -20.630571587921093 3.0692862888466252
lfingers nan
lthumb 5.558301351305872 32.860382737837334
rclavicle 7.333258318975828e-08 4.227580255338825e-08
rhumerus -66.34418283124606 4.324890744679151 -93.71815943818815
rradius 105.06733550296002
rwrist -14.356294666574362
rhand -15.870348841575897 -8.881784189112644e-10
rfingers nan
rthumb 10.117597004962635 9.452397576076198
24
root 0.511522844838349 17.823920842047897 -2.143356601750919 3.093746173515427 1.3851598160024343 -0.01248796350627357
lfemur -16.574346038852667 7.057174309062249 -14.775340833097705
ltibia 112.74832996809505
lfoot 20.139028189577672 -17.432430965268694
ltoes -11.51871667615777
rfemur -6.468164237676806 6.69010347069213 34.37435923360037
rtibia 21.04788365930459
rfoot 14.566617680409824 -0.2465174738960645
rtoes -8.464585340802586
lowerback -8.881784189112644e-10 1.5801934047518824 6.231312485642655
upperback -0.03968064367293933 1.877520470705296 2.4078833089174436
thorax -8.246675753915406 1.0357141848485922 -0.8666656842333762
lowerneck -19.371046741771654 -2.855455694488982 -3.0708200905785032
upperneck 11.64013438935439 -4.990040515846871 4.724230088021447
head 6.785514960698046 -2.1410026944520686 1.253826326861494
lclavicle 2.4930361270862455e-07 -1.4951073219855752e-07
lhumerus -46.92808468402858 -9.822154355602702 95.52295978693373
lradius 122.11521644691686
lwrist 33.20029047980951
lhand -20.75634628350775 2.3200007701949716
lfingers nan
lthumb 5.5837344594773155 32.262853304521016
rclavicle 3.754343583808084e-07 2.3299264233735832e-07
rhumerus -64.64593625490649 5.1432648123359 -94.33179754074366
rradius 106.1081172898492
rwrist -15.675577856373394
rhand -16.106212151659395 -8.881784189112644e-10
rfingers nan
rthumb 10.508103885760296 9.415662162247951
25
root 0.5053286557959248 18.18349099691418 -0.34714906096633324 3.4034269504043007 1.5004616256271652 -0.6820764332856271
lfemur -20.819900360225823 7.076862806822408 -13.326890783104666
ltibia 120.96120601003098
lfoot 14.949292416090083 -15.190437677815128
ltoes -10.258581042764309
rfemur -6.355642765159194 6.188522791639089 36.11599718200093
rtibia 13.223763482341148
rfoot 14.236024397557479 -2.840300763228948
rtoes -6.061155693740886
lowerback -8.881784189112644e-10 1.595075161605462 7.269528216675829
upperback 0.2904055195753703 2.7591184256381247 2.619375916687905
thorax -8.965247488119154 1.576483532945998 -1.9240106284832732
lowerneck -19.128565133998467 -3.17275424504228 -2.877890699078027
upperneck 11.050464501794806 -5.933718639278232 5.054684772225112
head 7.092211932228161 -2.5294754953359537 1.1306126459291619
lclavicle 3.502329651407551e-07 -6.680190705526176e-08
lhumerus -48.95738351812503 -10.423791470142103 96.54154586342368
lradius 120.56525596750156
lwrist 33.256706499946844
lhand -20.390258392546492 2.7138267755673326
lfingers nan
lthumb 5.641344492916175 32.24875182776895
rclavicle 3.9272693645359366e-07 2.957853781363486e-08
rhumerus -60.91965095971649 7.07117254015841 -95.50596619228794
rradius 106.27779971628826
rwrist -16.545002007615214
rhand -16.710287423202697 -8.881784189112644e-10
rfingers nan
rthumb 9.834907685998157 9.182338637859427
26
root 0.48188305110397156 18.142638752387196 -0.36348071330783327 3.0564015659119814 0.6125875360103481 -1.3972417602621134
lfemur -25.081947910992355 6.83283043768532 -13.271206577450368
ltibia 122.71589622022634
lfoot 12.719801312887178 -13.13943089661299
ltoes -7.369222567498854
rfemur -6.376404946844692 5.146872702419953 36.415227421482776
rtibia 6.444514460699935
rfoot 11.133131178578934 -4.170272913084714
rtoes -2.2027472208658896
lowerback -8.881784189112644e-10 1.5743232484927703 7.412116705347826
upperback 0.272625193663395 3.3467475033044525 2.754315183098802
thorax -9.54302234895124 1.7994880709014542 -2.035870064703519
lowerneck -19.610852274829025 -3.7926753856260946 -2.5935155752087833
upperneck 10.59005469047449 -6.624427915274399 5.461668761596522
head 7.616438251876231 -2.7784548574073518 1.0066971232460507
lclavicle 4.4354871276133705e-07 -2.626391701852514e-07
lhumerus -49.824978852270014 -11.949697824516734 97.69693126217281
lradius 118.65933511855151
lwrist 33.59318750630876
lhand -20.706076222018563 2.684268549003629
lfingers nan
lthumb 5.823309806041847 32.588840807823715
rclavicle 4.6254192631617464e-07 -1.9734372852924473e-07
rhumerus -54.67100949195206 9.137636571303174 -96.75663404426223
rradius 108.0296117729968
rwrist -16.794467170451405
rhand -16.326714798625716 -8.881784189112644e-10
rfingers nan
rthumb 10.225598869243644 8.489509688139652
27
root 0.4607839228954824 18.069383708571337 2.4601201961875168 2.639703012976316 0.39181008805216555 -1.6878852186004805
lfemur -26.489916044306312 5.585668044798747 -13.546453986438273
ltibia 117.4260154759518
lfoot 13.967678308862094 -11.201556965101748
ltoes -6.824140413030225
rfemur -6.646724809256403 3.463407323383889 35.31825248020607
rtibia 4.116028196537165
rfoot 3.6558335938316335 -4.100442097825288
rtoes -5.43963592848149
lowerback -8.881784189112644e-10 1.4459566715205012 6.194290977343654
upperback 0.3384043266646224 3.443407174126472 2.8659185847978836
thorax -10.242493942131485 1.7684173072934992 -1.7031454145845293
lowerneck -19.694463194564772 -3.9152034044402524 -2.6180775864123547
upperneck 9.697205014371322 -7.143111424992734 5.748793652996238
head 7.68987481654741 -2.959674942823547 0.9696904664872137
lclavicle 1.0782241964322129e-07 -3.620970242393624e-07
lhumerus -50.72622085379868 -12.857874056830571 98.33460862608915
lradius 118.73761171035122
lwrist 33.94124366580923
lhand -20.348969420451702 2.925204068063041
lfingers nan
lthumb 6.09720966849914 32.80076895520998
rclavicle 3.282507979112237e-07 -3.4345205345578325e-07
rhumerus -50.81487256987348 11.41289599401484 -97.98465940609508
rradius 109.94761733273697
rwrist -17.087353161456278
rhand -16.282388385456436 -8.881784189112644e-10
rfingers nan
rthumb 9.65325216850701 8.32657595241735
